<!--
    This icon belongs to https://thenounproject.com/term/pull-request/116191/
    Purchased by Nhat Phan 2019-01-10 22:30
    All right reserved.
-->
<svg height='80px' width='80px'  fill="#B36AE2" xmlns:rdf="http://www.w3.org/1999/02/22-rdf-syntax-ns#" xmlns="http://www.w3.org/2000/svg" xmlns:cc="http://creativecommons.org/ns#" xmlns:dc="http://purl.org/dc/elements/1.1/" viewBox="0 0 100 100" version="1.1" x="0px" y="0px"><path style="color-rendering:auto;text-decoration-color:#000000;color:#000000;isolation:auto;mix-blend-mode:normal;shape-rendering:auto;solid-color:#000000;block-progression:tb;text-decoration-line:none;text-decoration-style:solid;image-rendering:auto;white-space:normal;text-indent:0;text-transform:none;" d="m32.49 5c-4.1184 0-7.5 3.3816-7.5 7.5 0 3.4254 2.3431 6.3326 5.5 7.2168v60.566c-3.1569 0.88424-5.5 3.7913-5.5 7.2168 0 4.1184 3.3816 7.5 7.5 7.5s7.5-3.3816 7.5-7.5c0-3.3966-2.3033-6.2847-5.4199-7.1953 0.35619-5.0652 2.0418-7.1757 4.4609-8.4199 2.6802-1.3785 6.7977-1.4941 11.17-1.4941 4.3722 0 8.9965 0.12263 12.893-1.8809 3.4653-1.782 5.88-5.4521 6.3203-11.268 3.2051-0.85173 5.5957-3.7823 5.5957-7.2422 0-3.4254-2.3431-6.3326-5.5-7.2168v-4.3164c3.1569-0.88424 5.5-3.7913 5.5-7.2168 0-3.4254-2.3431-6.3326-5.5-7.2168v-4.3164c3.1569-0.88424 5.5-3.7913 5.5-7.2168 0-4.1184-3.3816-7.5-7.5-7.5-3.4198 0-6.3235 2.3353-7.2129 5.4844l-11.158 0.03125v-2.3457l-3.75 2.1641-3.75 2.166 3.75 2.166 3.75 2.1641v-2.3145l11.15-0.03125c0.70148 2.5255 2.6973 4.5256 5.2207 5.2324v4.3164c-3.1569 0.88424-5.5 3.7913-5.5 7.2168 0 3.4254 2.3431 6.3326 5.5 7.2168v4.3164c-3.1569 0.88424-5.5 3.7913-5.5 7.2168 0 3.3981 2.3052 6.288 5.4238 7.1973-0.31574 4.6697-1.8963 6.5857-4.168 7.7539-2.5962 1.335-6.6867 1.4395-11.064 1.4395-4.3778 0-9.0455-0.0974-12.998 1.9355-0.99128 0.50985-1.9022 1.1677-2.7129 1.9824v-50.592c3.1569-0.88424 5.5-3.7913 5.5-7.2168 0-4.1184-3.3816-7.5-7.5-7.5zm0 4c1.9567 0 3.5 1.5433 3.5 3.5s-1.5433 3.5-3.5 3.5-3.5-1.5433-3.5-3.5 1.5433-3.5 3.5-3.5zm35.02 0c1.9567 0 3.5 1.5433 3.5 3.5s-1.5433 3.5-3.5 3.5-3.5-1.5433-3.5-3.5 1.5433-3.5 3.5-3.5zm0 18.75c1.9567 0 3.5 1.5433 3.5 3.5s-1.5433 3.5-3.5 3.5-3.5-1.5433-3.5-3.5 1.5433-3.5 3.5-3.5zm0 18.75c1.9567 0 3.5 1.5433 3.5 3.5s-1.5433 3.5-3.5 3.5-3.5-1.5433-3.5-3.5 1.5433-3.5 3.5-3.5zm-35.02 37.5c1.9567 0 3.5 1.5433 3.5 3.5s-1.5433 3.5-3.5 3.5-3.5-1.5433-3.5-3.5 1.5433-3.5 3.5-3.5z"></path></svg>